<?xml version="1.0" encoding="utf-8"?>
<!-- Generator: Adobe Illustrator 24.3.0, SVG Export Plug-In . SVG Version: 6.00 Build 0)  -->
<svg version="1.1" id="Laag_1" xmlns="http://www.w3.org/2000/svg" xmlns:xlink="http://www.w3.org/1999/xlink" x="0px" y="0px"
	 viewBox="0 0 800 248.4" style="enable-background:new 0 0 800 248.4;" xml:space="preserve">
<style type="text/css">
	.st0{fill:#080F0F;}
</style>
<g>
	<path class="st0" d="M373.9,65.7c-2.7-1.4-6.3-2.8-10.7-4.2c-4.4-1.4-7.6-2.7-9.6-4c-2.1-1.2-3.1-2.9-3.1-5.1c0-2,0.6-3.5,1.8-4.6
		c1.2-1.1,2.8-1.6,4.8-1.6c2.3,0,4.2,0.6,5.7,1.9c1.5,1.3,2.3,3,2.4,5.2h17.8c-0.3-6.4-2.8-11.3-7.3-14.9c-4.6-3.6-10.6-5.4-18-5.4
		c-7.3,0-13.3,1.8-17.8,5.4c-4.6,3.6-6.8,8.5-6.8,14.8c0,4.2,1,7.7,3,10.3c2,2.6,4.4,4.6,7.1,6c2.8,1.3,6.3,2.7,10.7,4.1
		c3,0.9,5.4,1.7,7,2.4c1.6,0.7,3,1.6,4.1,2.7c1.1,1.1,1.7,2.5,1.7,4.1c0,2-0.7,3.6-2.1,4.7c-1.4,1.1-3.3,1.7-5.8,1.7
		c-2.4,0-4.3-0.7-5.8-2c-1.5-1.3-2.3-3.2-2.6-5.7h-17.5c0.1,4.4,1.4,8.2,3.7,11.4c2.3,3.2,5.5,5.5,9.4,7.1c3.9,1.6,8.4,2.4,13.3,2.4
		c5.1,0,9.5-0.9,13.2-2.8c3.7-1.9,6.6-4.4,8.5-7.5c2-3.1,2.9-6.7,2.9-10.5c0-4-1-7.4-3-9.9C379,69,376.6,67.1,373.9,65.7z"/>
	<polygon class="st0" points="431.5,101.7 448,101.7 448,47.2 465.9,47.2 465.9,34 413.6,34 413.6,47.2 431.5,47.2 	"/>
	<path class="st0" d="M539.6,99.2c4.3-2.1,7.8-5.3,10.4-9.5c2.6-4.2,3.9-9.3,3.9-15.3V34h-16.5v40.5c0,4.1-1,7.2-3.1,9.4
		c-2.1,2.2-5,3.3-8.9,3.3c-3.9,0-6.8-1.1-8.8-3.3c-2-2.2-3-5.3-3-9.4V34h-16.5v40.4c0,6,1.2,11.2,3.7,15.4c2.4,4.2,5.8,7.4,10,9.4
		c4.2,2.1,9,3.1,14.3,3.1C530.4,102.4,535.2,101.3,539.6,99.2z"/>
	<path class="st0" d="M632.6,38.2c-5.3-2.8-11.6-4.2-18.7-4.2h-25.4v67.7h25.4c7.1,0,13.3-1.4,18.7-4.2c5.4-2.8,9.5-6.8,12.4-12
		c2.9-5.1,4.4-11,4.4-17.7c0-6.7-1.5-12.6-4.4-17.7C642,45,637.9,41.1,632.6,38.2z M627.4,82.3c-3.5,3.4-8.3,5.1-14.6,5.1H605V48.1
		h7.8c6.2,0,11.1,1.7,14.6,5.2s5.2,8.3,5.2,14.6C632.6,74.1,630.8,78.9,627.4,82.3z"/>
	<rect x="681.8" y="34" class="st0" width="16.5" height="67.7"/>
	<path class="st0" d="M795.4,49.8c-3.1-5.3-7.2-9.4-12.5-12.3c-5.3-3-11.1-4.4-17.5-4.4c-6.4,0-12.2,1.5-17.5,4.4
		c-5.3,3-9.5,7.1-12.6,12.3c-3.1,5.3-4.7,11.2-4.7,17.8c0,6.6,1.6,12.6,4.7,17.9c3.1,5.3,7.3,9.4,12.6,12.4c5.3,3,11.1,4.4,17.5,4.4
		c6.4,0,12.2-1.5,17.5-4.4c5.3-3,9.4-7.1,12.5-12.4c3.1-5.3,4.6-11.3,4.6-17.9C800,61,798.5,55.1,795.4,49.8z M778.4,81.9
		c-3.3,3.6-7.6,5.4-13,5.4c-5.5,0-9.8-1.8-13.1-5.4c-3.3-3.6-4.9-8.3-4.9-14.3c0-6,1.6-10.8,4.9-14.4c3.2-3.5,7.6-5.3,13.1-5.3
		c5.4,0,9.7,1.8,13,5.4c3.2,3.6,4.9,8.3,4.9,14.3C783.2,73.6,781.6,78.3,778.4,81.9z"/>
	<path class="st0" d="M360.7,195.8c0,2.4-0.5,4.3-1.6,5.6c-1.1,1.3-2.6,1.9-4.6,1.9c-2.2,0-3.9-0.7-5-2.2c-1.2-1.4-1.7-3.6-1.7-6.4
		h-16.4c0,7.5,2.2,13.2,6.5,17.3c4.3,4.1,10,6.1,17.2,6.1c6.8,0,12.2-1.9,16.3-5.8c4-3.9,6-9.4,6-16.5v-46.1h-16.5V195.8z"/>
	<path class="st0" d="M463.2,153.2c-5.3-3-11.1-4.4-17.5-4.4c-6.4,0-12.2,1.5-17.5,4.4c-5.3,3-9.5,7.1-12.6,12.3
		c-3.1,5.3-4.7,11.2-4.7,17.8c0,6.6,1.6,12.6,4.7,17.9c3.1,5.3,7.3,9.4,12.6,12.4c5.3,3,11.1,4.4,17.5,4.4c6.4,0,12.2-1.5,17.5-4.4
		c5.3-3,9.4-7.1,12.5-12.4c3.1-5.3,4.6-11.3,4.6-17.9c0-6.6-1.5-12.6-4.6-17.8C472.7,160.3,468.5,156.2,463.2,153.2z M458.6,197.7
		c-3.3,3.6-7.6,5.4-13,5.4c-5.5,0-9.8-1.8-13.1-5.4c-3.3-3.6-4.9-8.3-4.9-14.3c0-6,1.6-10.8,4.9-14.4c3.2-3.5,7.6-5.3,13.1-5.3
		c5.4,0,9.7,1.8,13,5.4c3.2,3.6,4.9,8.3,4.9,14.3C463.5,189.3,461.9,194.1,458.6,197.7z"/>
	<polygon class="st0" points="512.6,217.4 554.1,217.4 554.1,204.2 529.1,204.2 529.1,189.4 551.2,189.4 551.2,176.6 529.1,176.6 
		529.1,162.9 554.1,162.9 554.1,149.7 512.6,149.7 	"/>
	<path class="st0" d="M253,89.8c-6-5.4-12.2-11.1-17-23.4c-3.4-8.9-5.2-15.8-6.7-21.9c-3.8-15.1-6.1-24.2-27.7-36.6
		c-19-11-28.5-8.2-40.5-4.8c-7,2-14.8,4.2-26.7,4.2c-11.8,0-19.7-2.2-26.7-4.2c-12-3.4-21.5-6.1-40.5,4.8
		c-19,11-21.4,20.6-24.4,32.7c-1.8,7-3.8,15-9.7,25.2c-5.9,10.2-11.8,15.9-17,21C7.1,95.4,0,102.3,0,124.2s7.1,28.8,16.1,37.5
		c5.2,5,11.1,10.7,17,21c5.9,10.2,7.9,18.2,9.7,25.2c3,12.1,5.4,21.7,24.4,32.7c19,11,28.5,8.2,40.5,4.8c7-2,14.8-4.2,26.7-4.2
		c11.8,0,19.7,2.2,26.7,4.2c5.6,1.6,10.6,3,16.3,3c6.6,0,14.1-1.9,24.3-7.8c19-11,21.4-20.6,24.4-32.7c1.8-7,3.8-15,9.7-25.2
		c5.9-10.2,11.8-15.9,17-21c9-8.7,16.1-15.6,16.1-37.5C268.8,104.1,261.1,97.1,253,89.8z M113.2,223.9c-14.5-3.1-17.5-7.9-22.6-16
		c-3.1-5-7.1-11.2-14.7-18.2c3.5,1.3,7.4,3,12,6c7.2,4.7,11.2,9.2,14.6,13.2c6,6.9,10.7,12.3,26.7,13.2c1.2,0.1,2.3,0.1,3.4,0.1
		c0.7,0,1.3-0.1,2-0.1C129.4,225,124,226.2,113.2,223.9z M211.3,174.2c-7.3,11.2-12.3,12.2-20.7,13.8c-5.2,1-11.7,2.3-20,6.5
		c2.2-2.6,5-5.3,8.9-8.1c6.3-4.6,11.3-6.4,15.8-8c7.7-2.8,13.8-5,19.7-18.2c0.7-1.6,1.3-3,1.7-4.4
		C217.4,161,216.7,165.9,211.3,174.2z M129.6,215.8c-13.3-0.7-16.7-4.6-22.3-11c-3.5-4-7.9-9-15.6-14.1c3.3,0.7,7,1.6,11.5,3.6
		c7.1,3.2,11.2,6.6,14.9,9.7c5.4,4.5,9.9,8.2,20.1,8.2c1.7,0,3.5-0.1,5.5-0.3c1.7-0.2,3.3-0.4,4.7-0.7
		C144,214.5,139.4,216.4,129.6,215.8z M57.5,74.3c7.3-11.2,12.3-12.2,20.7-13.8c5.2-1,11.7-2.3,20-6.5c-2.2,2.6-5,5.3-8.9,8.1
		c-6.3,4.6-11.3,6.4-15.8,8c-7.7,2.8-13.8,5-19.7,18.2c-0.7,1.6-1.3,3-1.7,4.4C51.4,87.4,52.1,82.5,57.5,74.3z M136,32.6
		c1,0,2.1,0,3.2,0.1c15.5,0.8,18.7,4.5,25.7,12.5c3,3.4,6.7,7.6,12.1,12.5c0.8,0.7,1.6,1.3,2.3,1.9c-3.9-0.7-8.2-1.9-13.3-5.3
		c-5.2-3.4-8.8-6.4-12-9c-7.8-6.5-12.6-10.5-28.8-8.8c-1.7,0.2-3.2,0.4-4.7,0.7C124.3,34.3,128.3,32.6,136,32.6z M67.6,172.7
		c-7.1-9.7-6.3-14.3-4.9-21.8c0.8-4.7,1.8-10.6,1-18.9c1.4,2.7,2.8,5.9,4,10.1c1.8,6.7,1.7,11.6,1.7,15.9
		c-0.1,7.4-0.2,13.2,8.9,22.4c1.1,1.1,2.1,2,3.2,2.9C76.7,182.1,72.8,179.9,67.6,172.7z M196.1,107.4c-1.7-2.2-3.4-4.8-5-8.4
		c-2.6-5.7-3.2-10.1-3.7-13.9c-0.9-6.6-1.7-11.8-11.1-18.6c-0.6-0.4-1.1-0.7-1.6-1.1c3.8,0.2,7.4,1.5,12.2,6.3
		c7.6,7.6,7.6,11.8,7.5,18.7C194.3,94.7,194.2,100.1,196.1,107.4z M81.9,176.8c-7.6-7.6-7.6-11.8-7.5-18.7c0.1-4.3,0.1-9.7-1.8-16.9
		c1.7,2.2,3.3,4.8,4.9,8.4c2.6,5.7,3.2,10.1,3.7,13.9c0.9,6.6,1.7,11.8,11.1,18.6c1.1,0.8,2.2,1.5,3.2,2.1
		C91.3,183.8,87.5,182.4,81.9,176.8z M115.2,52.5c12.1-3.2,15.5-1.2,22.9,3.2c3.1,1.9,7.1,4.2,12.5,6.6c0.8,0.3,1.5,0.6,2.2,0.9
		c-3.2,0.5-6.8,0.6-11.6-0.7c-4.9-1.3-8.4-2.7-11.5-4c-7.7-3.1-12.3-4.9-24.4,0.5c-1.3,0.6-2.4,1.1-3.5,1.7
		C104.4,57.1,107.5,54.5,115.2,52.5L115.2,52.5z M200.9,131.2c-1,9.7-4,12-8.9,15.8c-3.1,2.4-6.9,5.4-10.9,10.8
		c0.6-2.4,1.5-5.1,3.1-8.2c2.6-5,5.2-7.9,7.6-10.4c4.1-4.4,7.3-7.8,6.8-18.3c-0.1-1.3-0.2-2.4-0.3-3.4
		C200.5,120.6,201.6,124.1,200.9,131.2z M67.9,117.2c1-9.7,4-12,8.9-15.8c3.1-2.4,6.9-5.4,10.9-10.8c-0.6,2.4-1.5,5.1-3.1,8.2
		c-2.6,5-5.2,7.9-7.6,10.4c-4.1,4.4-7.3,7.8-6.8,18.3c0.1,1.3,0.2,2.4,0.3,3.4C68.3,127.8,67.2,124.4,67.9,117.2z M194.5,121.1
		c0.5,8.7-1.8,11.2-5.7,15.3c-2.4,2.6-5.3,5.8-8.1,11.2c0.2-2.2,0.6-4.7,1.6-7.8c1.6-4.8,3.5-7.8,5.3-10.3c3-4.5,5.4-8,3.4-17.2
		c-0.2-1.1-0.5-2.1-0.8-3C192.7,111.7,194.1,114.6,194.5,121.1z M74.3,127.4c-0.5-8.7,1.8-11.2,5.7-15.3c2.4-2.6,5.3-5.8,8.1-11.2
		c-0.2,2.2-0.6,4.7-1.6,7.8c-1.6,4.8-3.5,7.8-5.3,10.3c-3,4.5-5.4,8-3.4,17.2c0.2,1.1,0.5,2.1,0.8,3
		C76.1,136.7,74.6,133.8,74.3,127.4z M180,118.5c-0.4-3.4-1.2-6.6-2.3-9.7c-0.1-2.2-0.8-4.7-2.7-8c-0.5-0.8-0.9-1.5-1.4-2.1
		c2.5,1.4,4.4,3.2,6.3,8.1C182.1,112.6,181.5,115.2,180,118.5z M88.8,129.9c0.4,3.4,1.2,6.6,2.3,9.7c0.1,2.2,0.8,4.7,2.7,8
		c0.5,0.8,0.9,1.5,1.4,2.1c-2.5-1.4-4.4-3.2-6.3-8.1C86.7,135.9,87.3,133.3,88.8,129.9z M171.8,124.2c0,20.6-16.8,37.4-37.4,37.4
		S97,144.9,97,124.2s16.8-37.4,37.4-37.4S171.8,103.6,171.8,124.2z M100.4,93.4c-2.2,1.3-4.2,3.4-6.5,7.4c-0.5,0.8-0.8,1.5-1.2,2.2
		c-0.1-2.9,0.6-5.4,3.9-9.5c4.6-5.6,7.1-6.5,11.5-7C105.2,88.6,102.7,90.8,100.4,93.4z M126.1,169.5c1.9,1,4.4,1.6,8.3,1.6
		c0.9,0,1.8,0,2.5-0.1c-2.4,1.5-5,2.2-10.2,1.4c-6.1-1-8.1-2.8-10.2-5.7C119.6,167.9,122.8,168.9,126.1,169.5z M169.4,154
		c1.9-1.2,3.7-3,5.6-6.4c0.5-0.8,0.8-1.5,1.2-2.2c0.1,2.9-0.6,5.4-3.9,9.5c-3.9,4.9-6.5,5.6-10.2,6
		C164.8,158.9,167.2,156.6,169.4,154z M142.7,79c-1.9-1-4.4-1.6-8.3-1.6c-0.5,0-0.8,0-1.3,0.1c1.5-1,3.2-1.6,5.7-1.6
		c0.9,0,2,0.1,3.2,0.3c6.1,1,8.1,2.8,10.2,5.7C149.2,80.5,146,79.6,142.7,79z M125.1,79.1c-3.4,0.7-6.6,1.8-9.7,3.2
		c-2.2,0.3-4.1,0.6-5.8,0.7c-6,0.5-9.6,0.9-15.7,8.4c-0.6,0.8-1.2,1.5-1.7,2.3c0.4-3.2,1.6-5.8,5.9-9.7h0c5.3-4.7,8.2-5.7,12.1-5.7
		c1.2,0,2.4,0.1,3.8,0.2c2.7,0.2,6,0.4,10.3,0.2c0.7,0,1.2-0.2,1.9-0.2C125.9,78.7,125.5,78.9,125.1,79.1z M90,110
		c0,0.7,0.1,1.4,0.1,2.2c-0.8,3.1-1.3,6.3-1.5,9.6c-0.7,2-1.4,3.7-2.1,5.2c-2,4.4-3.7,7.9-0.6,15.8c0.4,1,0.7,1.8,1.1,2.6
		c-2.5-1.9-4.3-4.3-5.5-10c-1.6-7.7,0.1-10.2,2.9-14.4C86.1,118.5,88.2,115.2,90,110z M101.8,156.6c2.3,2.3,4.9,4.4,7.7,6.2
		c1.4,1.6,2.5,3,3.4,4.4c2.8,4,5,7.1,13.4,8.4c1.1,0.2,2,0.2,3,0.3c-3,1.3-5.9,1.7-11.6-0.2c-7.5-2.4-8.8-5.2-11-9.7
		c-1.4-2.8-3.1-6.3-6.7-10.4C100.5,155.9,101.1,156.3,101.8,156.6z M146.2,168.6c3.2-0.9,6.3-2,9.2-3.5c2.1-0.4,3.9-0.6,5.5-0.8
		c4.8-0.4,8.7-0.8,14-7.4c0.6-0.8,1.2-1.5,1.7-2.3c-0.4,3.2-1.6,5.8-5.9,9.7c-5.8,5.3-8.9,5.1-13.9,4.7c-3.1-0.2-7-0.5-12.4,0.6
		C144.9,169.4,145.5,169,146.2,168.6z M178.8,138.4c0-0.7-0.1-1.4-0.1-2.2c0.8-3.1,1.4-6.3,1.5-9.6c0.6-2,1.4-3.7,2.1-5.2
		c2-4.4,3.7-7.9,0.6-15.8c-0.4-0.9-0.7-1.8-1.1-2.6c2.5,1.9,4.3,4.3,5.5,10c1.6,7.7-0.1,10.2-2.9,14.4
		C182.7,130,180.6,133.2,178.8,138.4z M167,91.8c-2.3-2.3-4.9-4.4-7.7-6.2c-1.4-1.6-2.5-3-3.4-4.4c-2.8-4-5-7.1-13.4-8.4
		c-0.5-0.1-1-0.1-1.4-0.2c2.6-1.1,5.3-1.5,10,0.1c7.5,2.4,8.8,5.2,11,9.7c1.4,2.8,3.1,6.3,6.7,10.4C168.3,92.5,167.7,92.2,167,91.8z
		 M124.2,74.9c-4.1,0.2-7.2,0-9.9-0.2c-6.7-0.4-10.7-0.7-18.7,6.5c-0.8,0.8-1.6,1.5-2.2,2.2c1-3.4,2.7-6.1,8.2-9.7
		c8.5-5.5,11.6-4.8,18.5-3.3c2.9,0.7,6.5,1.5,11.3,2c0.8,0.1,1.4,0,2.1,0.1C131.1,73.7,128.3,74.7,124.2,74.9z M97,157.9
		c3.4,3.8,5,7,6.3,9.7c2.4,4.8,4.2,8.7,13.2,11.6c1.2,0.4,2.1,0.6,3.1,0.8c-3.5,0.9-6.7,0.7-12.6-2.2c-7.8-4-8.8-7.2-10.4-12.6
		c-1-3.3-2.3-7.5-5.6-12.6C92.9,154,94.8,155.5,97,157.9z M144.9,173.5c5-1.1,8.5-0.8,11.6-0.6c5.4,0.4,9.6,0.7,16.6-5.7
		c0.8-0.8,1.6-1.5,2.2-2.2c-1,3.4-2.8,6.1-8.2,9.6c-7.3,4.8-10.6,4-16.1,2.8c-3.4-0.8-7.6-1.7-13.7-1.5
		C139.4,175,141.7,174.1,144.9,173.5z M171.8,90.5c-3.4-3.8-5-7-6.3-9.8c-2.4-4.8-4.2-8.7-13.2-11.6c-0.6-0.2-1-0.3-1.5-0.4
		c3-0.8,6.1-0.7,11,1.8c7.8,4,8.8,7.2,10.4,12.6c1,3.3,2.3,7.5,5.6,12.6C175.9,94.5,174,92.9,171.8,90.5z M131.8,68.4
		c-4.5-0.5-7.9-1.2-10.8-1.9c-7.2-1.6-11.6-2.6-21.6,3.8c-1.1,0.7-2,1.4-2.8,2c1.7-3.6,4.1-6.3,10.6-9.2c10.3-4.6,13.6-3.3,20.8-0.4
		c3.1,1.2,6.9,2.7,12,4.1c0.8,0.2,1.5,0.3,2.3,0.4C139.5,68.2,136.3,68.8,131.8,68.4z M87.5,154.7c3.1,4.7,4.2,8.5,5.2,11.8
		c1.8,5.7,3.1,10.2,12.5,15c1.1,0.6,2.2,1,3.1,1.4c-3.9,0.3-7.5-0.4-13.3-4.6c-7.9-5.7-8.4-9.4-9.3-15.6c-0.5-3.8-1.2-8.6-4-14.8
		C83.7,149.6,85.5,151.7,87.5,154.7z M137.3,180.1c5.6-0.3,9.5,0.6,12.8,1.4c5.8,1.3,10.5,2.4,19.2-3.3c1.1-0.7,2-1.4,2.8-2
		c-1.7,3.6-4.1,6.3-10.6,9.2c-8.9,4-12.4,2.5-18.1,0.2c-3.6-1.5-8.1-3.2-14.8-4C131,180.9,133.8,180.3,137.3,180.1z M181.3,93.8
		c-3.1-4.7-4.2-8.5-5.2-11.8c-1.8-5.7-3.2-10.2-12.5-15c-0.6-0.3-1.1-0.5-1.6-0.7c3.4-0.3,6.8,0.3,11.8,3.9
		c7.9,5.7,8.4,9.4,9.3,15.6c0.5,3.8,1.2,8.6,4,14.8C185.1,98.8,183.3,96.7,181.3,93.8z M84.1,87.7C80.4,92.8,77,95.5,74,97.8
		c-5.2,4.1-9.4,7.3-10.6,18.9c-0.1,1.4-0.2,2.7-0.2,3.8c-1.9-3.9-2.5-7.9-0.5-15.6c2.8-10.4,6.4-12.5,12.5-15.8
		c3.8-2.1,8.5-4.7,13.8-10C87.8,81.7,86.4,84.5,84.1,87.7z M127.9,186c6.3,0.7,10.3,2.3,13.9,3.7c3.4,1.4,6.5,2.6,10.3,2.6
		c3.1,0,6.7-0.8,11.4-2.9c1.3-0.6,2.4-1.1,3.5-1.7c-2.5,3.6-5.6,6.2-13.3,8.2c-10.4,2.8-14,0.6-19.9-2.9c-3.7-2.2-8.3-5-15.6-6.9
		C120.9,185.8,124,185.6,127.9,186z M184.7,160.8c3.7-5.1,7.1-7.8,10.1-10.1c5.2-4.1,9.4-7.3,10.6-18.9c0.1-1.4,0.2-2.7,0.2-3.9
		c1.9,3.9,2.5,7.9,0.5,15.6c-2.8,10.4-6.4,12.4-12.5,15.8c-3.8,2.1-8.5,4.7-13.8,10C181,166.7,182.4,164,184.7,160.8z M152.7,57.6
		c-5.1-2.3-8.8-4.5-11.9-6.3c-7.9-4.7-12.7-7.5-26.8-3.7h0c-1.5,0.4-2.8,0.8-4.1,1.3c3.3-3.5,7.2-5.8,16-6.7
		c13.9-1.5,17.2,1.3,24.6,7.5c3.1,2.6,7,5.8,12.5,9.4c0.8,0.5,1.5,0.9,2.3,1.4C161.7,60.4,157.7,59.9,152.7,57.6z M85.6,75.4
		c-4.9,4.9-9.2,7.3-12.9,9.4c-6.5,3.6-11.6,6.4-14.9,18.9c-0.4,1.5-0.7,2.9-0.9,4.2c-1.4-4.7-1.4-9.1,2.2-17.2
		c4.9-11,9.2-12.6,16.4-15.2c4.5-1.6,10.1-3.7,16.9-8.6C90.7,69.5,88.7,72.3,85.6,75.4z M116.5,190.9c6.7,1.8,10.9,4.3,14.6,6.5
		c4.4,2.6,8.2,4.9,14.3,4.9c2.7,0,5.8-0.4,9.6-1.4c1.5-0.4,2.8-0.8,4.1-1.3c-3.3,3.5-7.2,5.8-16,6.7c-11.9,1.3-15.5-1.7-21.4-6.6
		c-3.7-3.1-8.3-6.9-15.9-10.3C108.9,189.4,112.3,189.8,116.5,190.9z M183.2,173.1c4.9-4.9,9.2-7.3,12.9-9.4
		c6.5-3.6,11.6-6.4,14.9-18.9c0.4-1.5,0.7-2.9,0.9-4.2c1.4,4.7,1.4,9.1-2.2,17.2c-4.9,11-9.2,12.5-16.4,15.2
		c-4.5,1.6-10.1,3.7-16.9,8.6C178.1,179,180.1,176.2,183.2,173.1z M206.1,97.5c-0.8,4.7-1.8,10.6-1,18.9c-1.4-2.7-2.8-5.9-4-10.1
		c-1.8-6.7-1.7-11.6-1.7-15.9c0.1-7.4,0.2-13.2-8.9-22.4c-0.6-0.6-1.1-1-1.6-1.5c4.1,0.9,7.8,2.9,12.3,9.1
		C208.2,85.4,207.4,90,206.1,97.5z M51.1,141c1.7-5,3.9-11.3,4.4-20.6c1.1,3.2,2.1,6.9,2.6,11.8c0.8,7.7-0.1,13-0.9,17.7
		c-1.4,8.1-2.5,14.5,5.9,26.1c1,1.4,2,2.6,3,3.7c-5-2-8.9-5.1-13.3-13.9C46.6,154,48.3,149.1,51.1,141z M217.7,107.4
		c-1.7,5-3.9,11.3-4.4,20.6c-1.1-3.2-2.1-6.9-2.6-11.8c-0.8-7.7,0.1-13,0.9-17.7c1.4-8.1,2.5-14.5-5.9-26.1c-0.5-0.7-1-1.3-1.5-1.9
		c4.4,1.7,8.1,4.6,11.9,12.1C222.2,94.5,220.5,99.3,217.7,107.4z M181.2,53c-5.2-4.7-8.6-8.6-11.6-12c-7.5-8.5-12-13.7-30.1-14.6
		c-1.9-0.1-3.6-0.1-5.2,0c3.3-1.8,6.7-3,11.4-3c2.7,0,5.9,0.4,9.8,1.2c16.8,3.6,19.7,8.2,26,18.2c2.7,4.2,6,9.5,11.1,15.9
		c0.7,0.9,1.5,1.7,2.2,2.5C190.8,59.7,186.3,57.6,181.2,53z M95.7,48.2C88,52.2,82.1,53.3,77,54.3c-9,1.8-16,3.1-24.7,16.5
		c-1,1.6-1.9,3.1-2.7,4.5c0.1-6,1.8-11.2,9.1-19.4c9.9-11,15.6-11.2,25.1-11.5c5.9-0.2,13.3-0.5,23.1-3.6
		C104,43.3,100.5,45.8,95.7,48.2z M48.4,106.4c0.6,3.7,1.1,8,0.8,13.4c-0.4,8.6-2.4,14.3-4.1,19.2c-3,8.6-5.3,15.5,2,29.7
		c0.9,1.7,1.7,3.2,2.6,4.6c-5.1-3.1-8.8-7.2-12.2-17.6c-4.6-14.1-1.9-19.1,2.5-27.5C42.8,123,46.2,116.5,48.4,106.4z M173.1,200.2
		c7.7-3.9,13.5-5.1,18.7-6.1c9-1.8,16-3.1,24.7-16.5c1-1.6,1.9-3.1,2.7-4.6c-0.1,6-1.8,11.2-9.1,19.4c-9.9,11-15.6,11.2-25.1,11.5
		c-5.9,0.2-13.3,0.5-23.1,3.6C164.8,205.2,168.3,202.7,173.1,200.2z M220.4,142c-0.6-3.7-1.1-8-0.8-13.4c0.4-8.6,2.4-14.3,4.1-19.2
		c3-8.6,5.3-15.5-2-29.7c-0.4-0.9-0.9-1.6-1.4-2.4c4.5,2.7,8.1,6.5,11,15.4c4.6,14.1,1.9,19.1-2.5,27.5
		C226,125.5,222.6,132,220.4,142z M198.2,54.2c-4.8-6-7.9-10.9-10.6-15.2c-6.7-10.7-10.8-17.1-30.5-21.3c-2.1-0.4-4-0.8-5.8-1
		c6.3-2.3,12.4-2.6,23.7,1.8c17.9,6.9,20.2,12.4,25.4,24.5c2.2,5.1,4.9,11.5,9.4,19.3c0.7,1.1,1.3,2.1,2,3.2
		C207.5,63.2,203,60.1,198.2,54.2z M105.1,34.1c-9.1,3-15.7,3.2-21.6,3.4c-10.1,0.4-18.1,0.7-30,13.9c-1.4,1.6-2.6,3.1-3.7,4.5
		c1.2-6.6,3.9-12,13.4-19.7c8.9-7.2,14.7-9,20.9-9c2.7,0,5.5,0.3,8.6,0.7c6.6,0.8,14.7,1.8,26.1,0C115.2,30.1,110.9,32.3,105.1,34.1
		z M43.2,89.7c0.1,4.2-0.2,8.9-1.4,14.8c-2,9.4-5.1,15.2-7.8,20.4c-4.8,9-8.5,16-3,32.9c0.7,2,1.3,3.8,2.1,5.5
		c-5.1-4.3-8.4-9.4-10.3-21.4c-2.6-16.3,1.2-21.3,7.6-29.8C34.1,106.9,39,100.4,43.2,89.7z M71,194.6c7.1,6.4,10.6,12,13.8,17
		c5.4,8.6,9.6,15.4,27,19.1c2.1,0.4,4,0.8,5.8,1c-6.3,2.3-12.4,2.6-23.7-1.8c-15.4-5.9-17.9-11.7-22-21.4c-2.6-6-5.8-13.6-13-22.5
		C62.6,188,66.5,190.6,71,194.6z M163.7,214.3c9.1-3,15.7-3.2,21.6-3.4c10.1-0.4,18.1-0.7,30-13.9c1.4-1.6,2.6-3.1,3.7-4.5
		c-1.2,6.6-3.9,12-13.4,19.7c-12.8,10.3-19.1,9.6-29.6,8.3c-6.6-0.8-14.7-1.8-26.1,0C153.6,218.4,157.9,216.2,163.7,214.3z
		 M225.6,158.7c-0.1-4.2,0.2-8.9,1.4-14.8c2-9.4,5.1-15.2,7.8-20.4c4.7-9,8.5-16,3-32.9c-0.3-1-0.7-1.9-1.1-2.8
		c4.5,3.7,7.7,8.5,9.4,18.8c2.6,16.3-1.3,21.3-7.6,29.8C234.7,141.5,229.8,148.1,225.6,158.7z M197.3,15.3
		c18.4,10.6,20.1,17.1,23.7,31.3c1.5,6,3.4,13.5,7,22.9c0.5,1.4,1.1,2.6,1.6,3.8c-4.4-3.2-8.8-7.4-13-14.8c-4.3-7.4-6.8-13.3-9-18.5
		c-5.5-12.9-8.9-20.6-29.8-28.7c-2.2-0.8-4.3-1.5-6.2-2.1C178.8,7.8,185.6,8.5,197.3,15.3z M71.5,15.3c15.8-9.1,22.6-7.2,33.9-4
		c7,2,15.8,4.5,28.6,4.6c-4.3,1.7-9.4,3.4-16.1,4.4c-10.5,1.7-17.8,0.8-24.3,0c-11.2-1.4-20-2.4-35.4,10c-1.8,1.5-3.4,2.9-4.9,4.3
		C55.8,27.5,59.8,22,71.5,15.3z M8.6,124.2c0-18.3,5.1-23.2,13.5-31.3c5.2-5.1,11.8-11.4,18.2-22.4c-0.7,4.6-1.8,9.8-4.1,16
		c-3.8,9.9-8.2,15.8-12.2,21c-6.8,9-12.1,16.1-9,35.6c0.4,2.3,0.8,4.4,1.3,6.4C11.4,143.9,8.6,137.7,8.6,124.2z M71.5,233.2
		c-15.8-9.1-17.5-16-20.4-27.3c-1.8-7.1-4-15.9-10.4-27c3.7,2.9,7.6,6.5,11.8,11.7c6.7,8.3,9.6,15.1,12.1,21
		c4.4,10.4,7.9,18.6,26.3,25.6c2.2,0.9,4.3,1.5,6.2,2.1C90,240.6,83.2,239.9,71.5,233.2z M197.3,233.2c-15.8,9.1-22.6,7.2-33.9,4
		c-7-2-15.8-4.5-28.6-4.5c4.3-1.7,9.4-3.4,16.1-4.4c10.5-1.7,17.8-0.8,24.3,0c11.2,1.4,20,2.4,35.4-10c1.8-1.5,3.4-2.9,4.9-4.3
		C213,220.9,209,226.4,197.3,233.2z M246.7,155.6c-5.2,5.1-11.8,11.4-18.2,22.4c0.7-4.6,1.8-9.8,4.2-16c3.8-9.9,8.2-15.8,12.2-21
		c6.8-9,12.1-16.1,9-35.6c-0.2-1.2-0.5-2.2-0.7-3.3c4.3,4.8,7,10.7,7,22.2C260.2,142.5,255.1,147.4,246.7,155.6z"/>
</g>
</svg>
