<?xml version="1.0" encoding="utf-8"?>
<!-- Generator: Adobe Illustrator 24.3.0, SVG Export Plug-In . SVG Version: 6.00 Build 0)  -->
<svg version="1.1" id="Laag_1" xmlns="http://www.w3.org/2000/svg" xmlns:xlink="http://www.w3.org/1999/xlink" x="0px" y="0px"
	 viewBox="0 0 400 400" style="enable-background:new 0 0 400 400;" xml:space="preserve">
<style type="text/css">
	.st0{fill:#080F0F;}
</style>
<path class="st0" d="M376,148.9c-8.9-8.1-18.2-16.4-25.2-34.8c-5.1-13.2-7.7-23.5-10-32.5c-5.7-22.4-9.1-35.9-41.1-54.4v0
	c-28.2-16.3-42.3-12.2-60.2-7.1c-10.3,2.9-22,6.3-39.6,6.3s-29.2-3.3-39.6-6.3c-17.9-5.1-32-9.1-60.2,7.1
	C72.1,43.5,68.5,57.7,64,75.8c-2.6,10.4-5.6,22.2-14.3,37.4c-8.8,15.2-17.5,23.7-25.2,31.1C11.1,157.2,0.5,167.5,0.5,200
	c0,32.5,10.6,42.8,23.9,55.7c7.7,7.5,16.5,15.9,25.2,31.1c8.8,15.2,11.7,27,14.3,37.4c4.5,18,8.1,32.3,36.3,48.5
	c15.2,8.7,26.2,11.6,36,11.6c8.4,0,15.9-2.1,24.1-4.5c10.3-2.9,22-6.3,39.6-6.3s29.2,3.3,39.6,6.3c17.9,5.1,32,9.1,60.2-7.1
	c28.2-16.3,31.8-30.5,36.3-48.5c2.6-10.4,5.6-22.2,14.3-37.4c8.8-15.2,17.5-23.7,25.2-31.1c13.4-12.9,23.9-23.1,23.9-55.7
	C399.5,170.1,388.1,159.8,376,148.9z M293.4,38.3L293.4,38.3c27.3,15.8,29.8,25.4,35.1,46.4c2.3,8.9,5.1,20,10.4,33.9
	c0.8,2,1.6,3.8,2.4,5.7c-6.5-4.8-13.1-11-19.3-21.9c-6.4-11-10.1-19.8-13.4-27.5c-8.2-19.1-13.2-30.6-44.2-42.5
	c-3.3-1.3-6.3-2.3-9.2-3.1C266,27.2,276,28.3,293.4,38.3z M116,217.9c0.3,1.6,0.7,3.1,1.2,4.5c-3.6-3.8-5.8-8.1-6.4-17.7
	c-0.7-13,2.7-16.6,8.4-22.7c3.5-3.8,7.9-8.5,12.1-16.6c-0.3,3.3-0.9,7-2.3,11.5c-2.3,7.2-5.3,11.5-7.8,15.4
	C116.6,198.9,113.1,204.1,116,217.9z M104.7,205c0.1,1.9,0.3,3.5,0.5,5.1c-3.3-4.8-5-9.9-3.9-20.5c1.5-14.3,5.9-17.8,13.2-23.5
	c4.5-3.6,10.2-8,16.1-16.1c-0.9,3.6-2.2,7.5-4.6,12.2c-3.8,7.5-7.8,11.7-11.3,15.5C108.7,184.3,103.9,189.4,104.7,205z M284,182.1
	c-0.3-1.6-0.7-3.1-1.2-4.5c3.6,3.8,5.8,8.1,6.3,17.7c0.7,13-2.7,16.6-8.4,22.7c-3.5,3.8-7.9,8.5-12.1,16.6c0.3-3.3,0.9-7,2.4-11.5
	c2.3-7.2,5.3-11.5,7.8-15.4C283.4,201.1,286.9,195.8,284,182.1z M295.3,195c-0.1-1.9-0.3-3.5-0.5-5.1c3.3,4.8,5,9.9,3.9,20.5
	c-1.5,14.3-5.9,17.8-13.2,23.5c-4.5,3.6-10.2,8-16.1,16.1c0.9-3.6,2.2-7.5,4.6-12.2c3.8-7.5,7.8-11.7,11.3-15.5
	C291.3,215.7,296.1,210.6,295.3,195z M274.4,204.7c-2.6,3.9-5.8,8.7-8.4,16.4c-0.1-1-0.1-2.2-0.1-3.3c1.2-4.6,2-9.3,2.2-14.2
	c1-3,2.1-5.5,3.1-7.8c3-6.5,5.4-11.7,0.9-23.5c-0.5-1.4-1.1-2.7-1.7-3.8c3.8,2.9,6.3,6.4,8.1,14.8
	C281.1,194.7,278.5,198.5,274.4,204.7z M260.2,165.2c-0.7-1.2-1.3-2.2-2-3.2c3.8,2,6.5,4.8,9.3,12c3.3,8.6,2.4,12.5,0.2,17.5
	c-0.6-5-1.8-9.8-3.4-14.4C264.2,173.9,263.1,170.2,260.2,165.2z M256.2,245.5c-5.8,7.2-9.7,8.3-15.1,8.9c4-3,7.6-6.4,10.9-10.2
	c2.8-1.7,5.4-4.5,8.3-9.5c0.7-1.2,1.2-2.3,1.7-3.3C262.1,235.7,261.1,239.5,256.2,245.5z M269.6,154.8c-4.6-7-6.3-12.6-7.8-17.5
	c-2.6-8.5-4.7-15.2-18.5-22.3c-0.9-0.4-1.6-0.7-2.4-1.1c5.1-0.5,10.1,0.5,17.4,5.8c11.7,8.5,12.5,14,13.7,23.1
	c0.8,5.7,1.8,12.8,5.9,22C275.3,162.3,272.5,159.2,269.6,154.8z M256,139c1.5,5,3.4,11.1,8.3,18.7c-2.7-1.9-5.6-4.3-8.8-7.8
	c-5.1-5.6-7.4-10.3-9.4-14.5c-3.5-7.2-6.3-12.9-19.6-17.2c-0.8-0.3-1.5-0.4-2.3-0.6c4.4-1.1,9-1,16.3,2.7
	C252.1,126.3,253.6,131.1,256,139z M224.8,123.5c11.1,3.6,13.1,7.7,16.4,14.4c2.1,4.2,4.6,9.4,10,15.5c-0.9-0.4-1.8-1-2.8-1.5
	c-3.4-3.5-7.3-6.5-11.4-9.2c-2.1-2.3-3.7-4.5-5.1-6.5c-4.1-5.9-7.4-10.6-19.9-12.5c-0.8-0.1-1.4-0.2-2.1-0.2
	C213.7,121.8,217.8,121.3,224.8,123.5z M211.3,128.5c9.1,1.4,12,4.2,15.2,8.5c-4.5-1.9-9.3-3.3-14.2-4.2c-2.9-1.5-6.6-2.4-12.3-2.4
	c-0.7,0-1.3,0.1-1.9,0.1C201.2,128.6,204.7,127.5,211.3,128.5z M184.9,126.8c-6.1,0.3-10.6,0-14.6-0.2c-9.9-0.7-15.9-1.1-27.7,9.6
	c-1.3,1.1-2.3,2.2-3.3,3.2c1.5-5.1,4.1-9.1,12.1-14.3h0c7.6-4.9,12.3-6.5,17-6.5c3.2,0,6.4,0.7,10.4,1.6c4.3,1,9.6,2.2,16.7,2.9
	c1.1,0.1,2.1,0,3.1,0.1C195.1,125,191,126.5,184.9,126.8z M146.2,140.3c7.8-7,12.1-8.5,18-8.5c1.7,0,3.6,0.1,5.7,0.3
	c3.9,0.3,8.9,0.6,15.3,0.3c1-0.1,1.8-0.2,2.8-0.4c-0.5,0.4-1.1,0.7-1.7,1.1c-5.1,1-10,2.7-14.6,4.8c-3.2,0.5-5.9,0.8-8.4,1
	c-8.9,0.8-14.3,1.3-23.3,12.4v0c-1,1.2-1.8,2.3-2.5,3.3C138,150,139.8,146,146.2,140.3z M139.8,165.2c-0.7,1.2-1.2,2.3-1.7,3.3
	c-0.1-4.3,0.9-8,5.8-14.1v0c6.8-8.3,10.5-9.6,17.1-10.3c-4.2,2.9-7.9,6.3-11.3,10.1C146.2,156.1,143.2,159.2,139.8,165.2z
	 M141.8,237.9c-3.7-2-6.5-4.8-9.3-12c-3.3-8.6-2.4-12.5-0.2-17.5c0.6,5,1.8,9.8,3.4,14.4c0.1,3.3,1.2,7,4,11.9
	C140.4,236,141.1,237,141.8,237.9z M127.5,127.5c-7.3,7.3-13.6,10.8-19.1,13.9c-9.6,5.3-17.2,9.5-22.1,28.1c-0.6,2.2-1,4.3-1.4,6.2
	c-2.1-6.9-2.1-13.5,3.2-25.5c7.2-16.3,13.7-18.6,24.4-22.5c6.7-2.4,15-5.5,25.1-12.8C135.1,118.7,132.1,122.9,127.5,127.5z
	 M93.5,171.5C97.6,156,103,153,112,148c5.6-3.1,12.6-7,20.5-14.9c-1.6,3.8-3.7,7.9-7.2,12.6c-5.5,7.5-10.6,11.5-15.1,15
	c-7.8,6.1-13.9,10.9-15.7,28.1c-0.2,2.1-0.3,3.9-0.4,5.7C91.4,188.8,90.4,182.9,93.5,171.5z M125.6,195.3c2.6-3.9,5.8-8.7,8.4-16.4
	c0.1,1,0.1,2.1,0.1,3.3c-1.2,4.6-2,9.4-2.3,14.3c-1,3-2.1,5.5-3.1,7.8c-3,6.5-5.4,11.7-0.9,23.5c0.5,1.4,1.1,2.7,1.7,3.8
	c-3.8-2.9-6.3-6.4-8.1-14.8C118.9,205.3,121.5,201.5,125.6,195.3z M130.4,245.2c4.6,7,6.3,12.6,7.8,17.5c2.6,8.5,4.7,15.2,18.5,22.3
	c1.7,0.8,3.2,1.5,4.7,2.1c-5.8,0.5-11.1-0.6-19.7-6.9c-11.7-8.5-12.5-14-13.7-23.1c-0.8-5.7-1.8-12.8-5.9-22
	C124.7,237.7,127.5,240.8,130.4,245.2z M159.5,279.6c-11.6-5.9-13-10.7-15.5-18.6c-1.5-5-3.4-11.1-8.3-18.7c2.7,1.9,5.6,4.3,8.8,7.8
	c5.1,5.6,7.4,10.3,9.4,14.5c3.5,7.2,6.3,12.9,19.6,17.2c1.7,0.6,3.2,0.9,4.7,1.2C172.9,284.2,168.1,284,159.5,279.6z M175.2,276.5
	c-11.1-3.6-13.1-7.7-16.4-14.4c-2.1-4.2-4.6-9.4-10-15.5c0.9,0.4,1.8,1,2.8,1.5c3.4,3.5,7.3,6.5,11.4,9.2c2.1,2.3,3.7,4.5,5.1,6.5
	c4.1,5.9,7.4,10.6,19.9,12.5c1.5,0.2,2.9,0.4,4.2,0.5C187.7,278.6,183.4,279.1,175.2,276.5z M188.7,271.5c-9.1-1.4-12-4.2-15.2-8.5
	c4.5,1.9,9.3,3.3,14.2,4.2c2.9,1.5,6.6,2.4,12.3,2.4c1.4,0,2.6-0.1,3.7-0.2C200.1,271.6,196.4,272.7,188.7,271.5z M200,255.5
	c-30.6,0-55.5-24.9-55.5-55.5s24.9-55.5,55.5-55.5s55.5,24.9,55.5,55.5S230.6,255.5,200,255.5z M253.8,259.7
	c-8.7,7.8-13.2,7.5-20.7,7c-4.6-0.3-10.4-0.7-18.4,0.9c0.9-0.6,1.8-1.2,2.8-1.7c4.7-1.3,9.3-3,13.5-5.2c3.1-0.7,5.8-0.9,8.2-1.2
	c7.2-0.6,12.8-1.1,20.8-10.9c1-1.2,1.8-2.3,2.5-3.4C262,250,260.2,254,253.8,259.7z M260.8,260.6c-1.5,5-4.1,9.1-12.1,14.3
	c-10.9,7.1-15.8,5.9-23.9,4.1c-5.1-1.2-11.4-2.6-20.4-2.2c3-1.4,6.5-2.7,11.2-3.7c7.4-1.6,12.6-1.2,17.2-0.9c8,0.5,14.3,1,24.7-8.4
	C258.7,262.7,259.8,261.6,260.8,260.6z M272.5,272.5c7.3-7.3,13.6-10.8,19.1-13.9c9.6-5.3,17.2-9.6,22.1-28.1c0.6-2.2,1-4.3,1.4-6.2
	c2.1,6.9,2.1,13.5-3.2,25.6c-7.2,16.3-13.7,18.6-24.4,22.5c-6.7,2.4-15,5.5-25.1,12.7C264.9,281.3,267.9,277.1,272.5,272.5z
	 M306.5,228.5C302.4,244,297,247,288,252c-5.6,3.1-12.5,7-20.5,14.8c1.6-3.8,3.7-7.9,7.1-12.6c5.5-7.5,10.6-11.5,15.1-15
	c7.8-6.1,13.9-10.9,15.7-28.1c0.2-2.1,0.3-3.9,0.4-5.7C308.6,211.2,309.6,217.1,306.5,228.5z M306.4,160.4c-1.2,7-2.7,15.7-1.5,28.1
	c-2.1-4-4.2-8.7-5.9-15c-2.7-10-2.6-17.2-2.5-23.5c0.2-11,0.3-19.6-13.3-33.2c-0.8-0.8-1.6-1.5-2.4-2.2c6.1,1.4,11.6,4.4,18.2,13.5
	C309.6,142.4,308.4,149.2,306.4,160.4z M289,149.8c-0.1,6.4-0.2,14.4,2.6,25.2c-2.5-3.3-5-7.2-7.4-12.5c-3.8-8.5-4.7-14.9-5.5-20.6
	c-1.4-9.8-2.5-17.5-16.5-27.7c-0.9-0.6-1.7-1.1-2.5-1.6c5.7,0.3,11,2.2,18.1,9.4C289.3,133.4,289.2,139.5,289,149.8z M246.9,96.2
	c-7.8-5.1-13.1-9.5-17.8-13.4c-11.6-9.7-18.7-15.6-42.8-13c-2.5,0.3-4.8,0.6-6.9,1c5.6-4.3,11.6-6.9,23-6.9c1.5,0,3,0,4.7,0.1
	c23,1.2,27.7,6.6,38.2,18.5c4.4,5,9.9,11.3,18,18.6c1.2,1.1,2.3,2,3.5,2.9C260.9,103.1,254.6,101.2,246.9,96.2z M187.2,78.1
	c3.6-0.4,6.7-0.6,9.5-0.6c13,0,18,4.1,27.1,11.7c4.6,3.9,10.4,8.7,18.6,14c1.2,0.8,2.3,1.4,3.4,2.1c-5.3,0-11.2-0.8-18.7-4.2
	c-7.6-3.4-13-6.6-17.7-9.4c-11.7-7-18.8-11.2-39.9-5.5c-2.2,0.6-4.2,1.2-6.1,1.9C168.4,82.9,174.1,79.5,187.2,78.1z M171.5,93.5
	c18-4.8,23-1.8,34.1,4.7c4.7,2.8,10.5,6.2,18.5,9.8c1.1,0.5,2.2,0.9,3.3,1.3c-4.7,0.7-10,0.9-17.2-1.1c-7.3-2-12.5-4-17.1-5.9
	c-11.4-4.5-18.3-7.3-36.2,0.7c-1.9,0.8-3.6,1.7-5.1,2.5C155.4,100.3,160,96.6,171.5,93.5z M159.6,109.3c15.3-6.8,20.2-4.9,30.9-0.6
	c4.5,1.8,10.2,4.1,17.8,6.1c1.1,0.3,2.1,0.5,3.1,0.7c-4.1,1.3-8.8,2.2-15.4,1.5c-6.7-0.7-11.7-1.8-16-2.8
	c-10.8-2.4-17.3-3.9-32.1,5.7h0c-1.6,1-2.9,2-4.2,3C146.3,117.7,149.9,113.7,159.6,109.3z M133,107.8c-9.3,6.8-16.8,9.5-23.4,11.9
	c-11.5,4.2-20.5,7.5-29.2,27c-1,2.3-1.9,4.5-2.6,6.6c-1.1-7.9,0-15.2,8-27.5c10.8-16.6,18.3-18.1,30.7-20.5
	c7.7-1.5,17.4-3.4,29.7-9.6C142.9,99.6,138.9,103.6,133,107.8z M82.8,194.4c1.6,4.8,3.1,10.3,3.9,17.5c1.2,11.5-0.2,19.3-1.4,26.2
	c-2.1,12-3.8,21.5,8.8,38.8c1.5,2.1,3,3.9,4.4,5.5c-7.4-3-13.2-7.6-19.8-20.7c-9-17.6-6.5-24.9-2.4-36.8
	C78.9,217.5,82,208.2,82.8,194.4z M93.6,239.6c1.2-7,2.7-15.7,1.5-28.1c2.1,4,4.2,8.7,5.9,15c2.7,10,2.6,17.2,2.5,23.5
	c-0.2,11-0.3,19.6,13.3,33.2c1.6,1.6,3.2,3,4.7,4.3c-7-1.6-12.8-4.9-20.5-15.6C90.4,257.6,91.6,250.8,93.6,239.6z M111,250.2
	c0.1-6.4,0.2-14.4-2.6-25.2c2.5,3.3,5,7.2,7.4,12.5c3.8,8.5,4.7,14.9,5.5,20.6c1.4,9.8,2.5,17.5,16.5,27.7c1.7,1.2,3.3,2.3,4.8,3.2
	c-6.5-0.5-12.1-2.6-20.4-11C110.7,266.6,110.8,260.5,111,250.2z M153.7,304.1c10.5,4.7,16.6,9.8,22,14.3c8,6.7,14.6,12.2,29.8,12.2
	c2.5,0,5.2-0.1,8.2-0.5c2.6-0.3,4.9-0.6,7-1c-6.3,4.9-13.2,7.6-27.8,6.8c-19.7-1-24.8-6.8-33.1-16.4c-5.2-6-11.7-13.4-23.2-20.9
	C141.6,299.7,147.1,301.1,153.7,304.1z M212.8,321.8c-17.7,1.8-23-2.6-31.7-9.9c-5.5-4.6-12.2-10.2-23.5-15.3
	c4.5,0.2,9.6,0.7,15.9,2.4c10,2.7,16.2,6.4,21.6,9.6c6.6,3.9,12.1,7.3,21.2,7.3c4,0,8.6-0.6,14.2-2.2c2.2-0.6,4.2-1.2,6.1-1.9
	C231.6,317.1,225.9,320.5,212.8,321.8z M228.5,306.5c-15.5,4.2-20.8,1-29.6-4.3c-5.5-3.3-12.3-7.4-23.1-10.3
	c4.1-0.5,8.7-0.7,14.5-0.1c9.3,1,15.3,3.4,20.6,5.5c5.1,2,9.6,3.9,15.3,3.9c4.6,0,9.9-1.2,16.9-4.3c1.9-0.8,3.6-1.7,5.1-2.5
	C244.6,299.7,240,303.4,228.5,306.5z M240.4,290.7c-13.2,5.9-18.4,3.8-26.9,0.3c-5.3-2.2-12-4.8-22-5.9c3.5-1,7.6-1.9,12.9-2.1
	c8.4-0.5,14.1,0.9,19.1,2c8.6,2,15.5,3.6,28.6-4.9c1.6-1,3-2,4.2-3C253.7,282.3,250.1,286.3,240.4,290.7z M267,292.2
	c9.3-6.8,16.8-9.5,23.4-11.9c11.5-4.2,20.5-7.5,29.2-27c1-2.3,1.9-4.5,2.6-6.6c1.1,7.9,0,15.2-8,27.5
	c-10.8,16.6-18.3,18.1-30.7,20.5c-7.8,1.5-17.4,3.4-29.7,9.6C257.1,300.4,261.1,296.4,267,292.2z M317.2,205.5
	c-1.6-4.8-3.1-10.3-3.9-17.5c-1.2-11.5,0.2-19.3,1.4-26.2c2.1-12,3.8-21.5-8.8-38.8c-0.8-1.1-1.5-1.9-2.3-2.8
	c6.5,2.6,12,6.8,17.7,18c9,17.6,6.5,24.9,2.4,36.8C321.1,182.5,318,191.8,317.2,205.5z M260.2,43.1c26.5,10.2,30,18.4,37.7,36.4
	c3.3,7.6,7.3,17.1,14,28.7c1,1.7,2,3.2,2.9,4.7c-6.5-3.4-13.2-8-20.3-16.7c-7.2-8.9-11.8-16.2-15.8-22.6c-10-15.8-16-25.4-45.3-31.6
	c-3.1-0.7-5.9-1.1-8.6-1.4C234.3,37.1,243.4,36.6,260.2,43.1z M216.8,50.3c4.1,0,8.8,0.6,14.6,1.8c25,5.3,29.3,12.1,38.7,27
	c4,6.3,8.9,14.1,16.5,23.5c1.1,1.4,2.2,2.6,3.3,3.8c-6.2-2.1-12.8-5.2-20.4-12c-7.7-6.9-12.7-12.7-17.2-17.8
	c-11.1-12.7-17.8-20.3-44.7-21.7c-2.9-0.1-5.5-0.2-7.9-0.1C204.7,52,209.7,50.3,216.8,50.3z M106.6,38.3c12.8-7.4,21.6-9.9,29.6-9.9
	c6.8,0,13,1.8,20.7,4c10.5,3,23.5,6.7,42.4,6.8c-6.4,2.6-14,5-23.8,6.5c-15.6,2.5-26.5,1.1-36.1,0c-16.6-2-29.7-3.6-52.5,14.8
	c-2.7,2.2-5.1,4.3-7.3,6.4C83.3,56.5,89.3,48.3,106.6,38.3z M94.2,69.4C107.5,58.7,116.1,56,125.3,56c4,0,8.1,0.5,12.8,1.1
	c9.7,1.2,21.8,2.6,38.7,0c-5.4,3.2-11.8,6.4-20.3,9.2c-13.5,4.4-23.4,4.7-32.1,5.1c-15,0.5-26.9,1-44.6,20.6
	c-2.1,2.3-3.9,4.6-5.6,6.7C76.1,88.8,80.2,80.7,94.2,69.4z M87.6,98.8c14.7-16.3,23.2-16.6,37.3-17.1c8.8-0.3,19.7-0.7,34.4-5.4
	c-4.3,3.6-9.5,7.3-16.7,11c-11.4,5.8-20.1,7.5-27.8,9c-13.3,2.6-23.8,4.7-36.7,24.6c-1.6,2.4-2.9,4.6-4,6.8
	C74.2,118.6,76.7,110.9,87.6,98.8z M22.7,228.1c0.5,3.5,1.2,6.6,1.9,9.5c-7.2-8.3-11.3-17.5-11.3-37.6c0-27.1,7.5-34.4,20-46.5
	c7.8-7.6,17.5-17,27.1-33.4c-1,6.9-2.7,14.6-6.2,23.9c-5.7,14.7-12.2,23.5-18,31.2C26,188.6,18.1,199.2,22.7,228.1z M46.3,249.9
	c1,3,2,5.7,3,8.2c-7.6-6.4-12.5-14-15.4-31.8c-3.8-24.1,1.9-31.7,11.3-44.2c5.9-7.8,13.1-17.5,19.3-33.4c0.1,6.2-0.3,13.3-2.1,22
	c-3,13.9-7.6,22.6-11.6,30.3C43.7,214.4,38.2,224.9,46.3,249.9z M59.9,205.9c4.1-7.8,9.2-17.4,12.5-32.4c1,5.5,1.6,11.8,1.2,19.8
	c-0.7,12.8-3.6,21.2-6.1,28.6c-4.4,12.8-7.9,22.9,2.9,44.1c1.3,2.5,2.6,4.8,3.8,6.8c-7.6-4.6-13.1-10.7-18.1-26.1
	C49.4,225.8,53.3,218.3,59.9,205.9z M106.6,361.7c-23.5-13.6-26-23.7-30.3-40.6c-2.6-10.6-6-23.7-15.4-40.1
	c5.5,4.3,11.3,9.6,17.6,17.4c9.9,12.3,14.2,22.3,18,31.2c6.6,15.4,11.7,27.6,39.1,38c3.3,1.3,6.4,2.2,9.3,3.1
	C134.1,372.8,124,371.8,106.6,361.7z M139.8,356.9c-22.8-8.8-26.5-17.4-32.6-31.8c-3.8-9-8.6-20.2-19.3-33.5c5.5,3,11.4,7,18.1,13
	c10.6,9.5,15.8,17.9,20.4,25.2c8,12.8,14.3,22.8,40.1,28.3c3.1,0.7,5.9,1.1,8.6,1.4C165.7,362.9,156.6,363.4,139.8,356.9z
	 M168.6,348c-21.5-4.6-26-11.8-33.5-23.7c-4.7-7.4-10.5-16.7-21.8-27c5.3,1.9,11.1,4.5,17.8,8.9c10.7,7,16.6,13.7,21.7,19.6
	c8.9,10.2,15.9,18.3,39.6,19.5c1.8,0.1,3.5,0.1,5.1,0.1c1,0,1.9-0.1,2.9-0.1C192.5,349.6,184.5,351.4,168.6,348z M293.4,361.7
	c-23.5,13.6-33.6,10.7-50.3,5.9c-10.5-3-23.5-6.7-42.4-6.8c6.4-2.6,14-5,23.8-6.5c15.6-2.5,26.5-1.2,36.1,0
	c16.6,2,29.7,3.6,52.5-14.8c2.7-2.2,5.1-4.3,7.3-6.4C316.7,343.5,310.7,351.7,293.4,361.7z M305.8,330.6
	c-19,15.4-28.3,14.2-43.9,12.3c-9.7-1.2-21.8-2.6-38.7,0c5.4-3.2,11.7-6.4,20.2-9.2c13.5-4.4,23.4-4.7,32.1-5.1
	c15-0.5,26.9-1,44.6-20.6c2.1-2.3,3.9-4.6,5.6-6.7C323.9,311.2,319.8,319.3,305.8,330.6z M312.4,301.2
	c-14.7,16.3-23.2,16.6-37.3,17.2c-8.8,0.3-19.8,0.7-34.4,5.4c4.3-3.6,9.5-7.3,16.7-11c11.4-5.8,20.1-7.5,27.8-9
	c13.3-2.6,23.8-4.7,36.7-24.6c1.6-2.4,2.9-4.6,4-6.8C325.8,281.4,323.3,289.1,312.4,301.2z M326.4,206.6c0.7-12.8,3.6-21.2,6.1-28.6
	c4.4-12.8,7.9-23-2.9-44.1c-0.7-1.3-1.3-2.3-2-3.5c6.7,4,12,9.6,16.3,22.8c6.8,20.9,2.8,28.4-3.8,40.8c-4.1,7.8-9.2,17.4-12.5,32.4
	C326.6,220.9,326,214.6,326.4,206.6z M335.4,251.2c-0.1-6.2,0.3-13.3,2.1-22c3-13.9,7.6-22.6,11.6-30.3c7-13.3,12.6-23.8,4.5-48.9
	c-0.5-1.4-0.9-2.8-1.4-4.1c6.5,5.5,11.3,12.6,13.7,27.7c3.8,24.1-1.9,31.7-11.2,44.2C348.9,225.7,341.6,235.4,335.4,251.2z
	 M366.7,246.5c-7.8,7.6-17.5,17-27.1,33.4c1-6.9,2.7-14.6,6.2-23.9c5.7-14.7,12.2-23.5,18-31.2c10.1-13.4,18-23.9,13.4-52.9
	c-0.3-1.6-0.5-3.2-0.9-4.7c6.2,7.1,10.3,15.8,10.3,32.8C386.7,227.1,379.2,234.4,366.7,246.5z"/>
</svg>
